<svg xmlns="http://www.w3.org/2000/svg" viewBox="0 0 468.91 367.8">
  <defs>
    <style>
      .cls-1 {
        isolation: isolate;
      }

      .cls-2 {
        fill: #1d506a;
      }

      .cls-3 {
        fill: #ffd47d;
      }

      .cls-4 {
        mix-blend-mode: multiply;
        opacity: 0.75;
      }

      .cls-5 {
        stroke: #000;
      }

      .cls-5, .cls-6 {
        stroke-width: 3px;
      }

      .cls-6 {
        fill: #00bfb1;
        stroke: #0065d4;
      }
    </style>
  </defs>
  <g class="cls-1">
    <g id="Calque_2" data-name="Calque 2">
      <path class="cls-2" d="M198.36,246c-.13-.51-.09-.37.18-.52l2.1-1c1.41-.61,5.69-2.76,7.13-3.51,9.34-5,18.87-9.53,28.26-14.55,14.06-7.41,28.48-15,43.78-20.12,39-14.68,81.4-7.56,121.84-11.48C430,192.51,456.06,181,481.06,168c12.67-6.39,25.45-12.88,39.11-17.33a1.4,1.4,0,0,1,.88,2.65c-13.33,4.64-25.87,11.25-38.41,17.75-46.39,25.18-71,30.06-123.29,29.81-21.2.14-42.37.29-63,5.28a168.55,168.55,0,0,0-20,6.32c-19.82,7.27-38.1,18.67-57.28,27.71A129.56,129.56,0,0,1,199.4,247l-.33.09-.16,0-.08,0s-.07-.05-.21-.36a6.49,6.49,0,0,1-.26-.74Z" transform="translate(-55.47 -14.12)"/>
      <path class="cls-3" d="M196.75,248.29c-6.17-6.79,67.58-93.36,92.4-117A10.16,10.16,0,0,1,301.71,130c4,2.65,6.84,6.42,10.4,12.09a10.24,10.24,0,0,1-.77,12C291,178.58,202.71,254.83,196.75,248.29Z" transform="translate(-55.47 -14.12)"/>
      <path class="cls-3" d="M425.07,50.1c-.28,2-3.57,6.31-9.25,12.4L404.14,51.92A43.85,43.85,0,0,0,411.53,43c.86-7.76-4.83-10.7-9.47-8.28S376.77,58,375.25,62.44c.76,4.64,3.88,7.86,8.05,7.67s12.27-9.47,12.27-9.47l11.87,10.45c-17.94,17.7-47.77,43.87-81.17,70.64-14.82-11-18.07-15.54-22.82-20.84,19.79-29.56,61.43-83.37,86.86-102.32C417.22,4.93,432.65,24.71,425.07,50.1Z" transform="translate(-55.47 -14.12)"/>
      <g>
        <g class="cls-4">
          <path class="cls-5" d="M162.15,283l-24.22,37.4q-16.84,26.88-25.19,26.45-3.87-.21-6.58-6.05t-5.25-17.66q-2.55-11.82-3.5-17.88-2.16-14-3.07-16l-4.55,22.1q-2.15,10.71-4.29,19.66t-4.75,21.53q-2.62,12.57-3.42,19c-.16,1.43-1.3,2.91-3.41,4.47s-3.7,2.3-4.77,2.24q-3.2-.17-5.78-4.11A12.58,12.58,0,0,1,61,366.71a105.91,105.91,0,0,1,3.74-20.77q13.69-51.33,16-64.71A202.3,202.3,0,0,0,83.39,259a8.51,8.51,0,0,1,3.5-6.95A12.82,12.82,0,0,1,95.23,250q2.73.13,5.24,4.9a29.84,29.84,0,0,1,3.16,8.75l-.06-.17,7.57,33.8q4.52,20.25,6.11,25.73,7.73-9.65,23.16-33.76t21-30.87q5.58-6.84,7.71-6.74c2.18.12,4.55,1.41,7.1,3.89s3.78,4.55,3.7,6.2q-.1,1.89-3.93,25.65-2.67,16.79-5.22,37.61T168,349.54a50.86,50.86,0,0,0,.44,9.55,41.05,41.05,0,0,1,.31,7.15q-.45,8.47-2.9,11.44c-1.64,2-4.07,2.89-7.27,2.72q-8.75-.45-7.88-17.32.81-15.94,4.27-38.82t6-35.12Q161.86,284.72,162.15,283Z" transform="translate(-55.47 -14.12)"/>
          <path class="cls-5" d="M190.36,348.15a77.16,77.16,0,0,1-4.49,8q-3.75,6.17-5.21,6.87a6.14,6.14,0,0,1-2.58.71,6.54,6.54,0,0,1-3.72-1.7c-1.44-1.13-2.16-2.3-2.16-3.5s3.59-7.14,10.77-18.08q5.9-9,10.74-17.78,9.75-17.77,11.92-20.67c1.44-1.94,2.92-2.9,4.44-2.9q3.66,0,5.28,1.89c.55.4.82,1.36.82,2.87a10,10,0,0,1-.3,2.71q7.86,24,12.3,33.9t8.91,14.41a24.54,24.54,0,0,1,2.73,3,3.76,3.76,0,0,1,.49,2.06,5.24,5.24,0,0,1-1.71,4,5.79,5.79,0,0,1-4.08,1.61q-3.27,0-6.64-3.78a40.82,40.82,0,0,1-6.35-10.39q-3-6.61-3-7.43c0-.11-.07-.17-.21-.17A69.22,69.22,0,0,0,208,345.36a128.81,128.81,0,0,0-12.86,3.18,7.41,7.41,0,0,1-2.19.38A3.82,3.82,0,0,1,190.36,348.15ZM215.1,335q-1-2.53-6.1-18c-.32-.94-.53-1.54-.65-1.8l-12.19,23.19q2.7-.47,5.54-.86c1.26-.14,4.46-.74,9.62-1.8Q213.21,335.31,215.1,335Z" transform="translate(-55.47 -14.12)"/>
          <path class="cls-5" d="M286.68,315.86c0-2.84-.73-4.8-2.19-5.91s-3.6-1.65-6.44-1.65a26.7,26.7,0,0,0-13.46,3.54q-6.21,3.54-6.21,7.8a5.76,5.76,0,0,0,2.34,4.61q2.34,1.92,12.09,4.75Q283,332,288,335.5t5,8.53q0,8.28-12.62,15.18a54.13,54.13,0,0,1-26.24,6.89,12.17,12.17,0,0,1-7.09-1.85,5.41,5.41,0,0,1-2.66-4.55,7.18,7.18,0,0,1,1.2-4,3.44,3.44,0,0,1,2.88-1.85,5,5,0,0,1,1.89.35,21.62,21.62,0,0,0,8.42,1.93q6.69,0,15-3.76t8.35-7.36c0-1-.69-2-2.08-2.9a40.33,40.33,0,0,0-8.48-3.5q-9.33-3.06-14-5a16.78,16.78,0,0,1-7.13-5.17,12.36,12.36,0,0,1-2.43-7.71q0-8,9.36-14.94a36,36,0,0,1,22-6.92q7.26,0,11.44,2.88c2.8,1.92,4.19,4.11,4.19,6.57Q295,315.86,286.68,315.86Z" transform="translate(-55.47 -14.12)"/>
          <path class="cls-5" d="M351.66,305.77a40.66,40.66,0,0,1,8.63,11.53,27.42,27.42,0,0,1,3.26,12.21q0,6.62-4.4,13.75a45.32,45.32,0,0,1-11.66,12.54q8,9.39,9.56,11.72a7.66,7.66,0,0,1,1.56,3.18q0,1.62-2.62,3.5t-3.69,1.86a5.83,5.83,0,0,1-4.25-2.14,56.91,56.91,0,0,0-5.43-8.66q-3.67-5-3.8-5a9.41,9.41,0,0,0-1.89.35,53,53,0,0,1-13.62,2,24.92,24.92,0,0,1-15.67-5,16.18,16.18,0,0,1-6.48-13.51q0-9.52,6.82-20.55a66,66,0,0,1,17.2-18.61q10.38-7.61,18.66-7.6c1.78,0,3.52.9,5.24,2.72A8.3,8.3,0,0,1,351.66,305.77Zm-19.84,47.15a15.63,15.63,0,0,0-1.55-2.06q-3.74-4-3.73-4.86c0-1.05.88-2.23,2.64-3.52a9.25,9.25,0,0,1,5.56-1.93q2.53,0,3.22,2.88a10.11,10.11,0,0,0,1.72,3.69c.83,1.15,1.47,1.72,1.93,1.72q3.39,0,7.75-6.25t4.36-12A25.51,25.51,0,0,0,348.33,315q-5.38-7.23-8.31-7.24-5.32,0-12.07,6a52,52,0,0,0-11.36,14.58q-4.6,8.63-4.61,15.07c0,3.38,1.06,6,3.2,7.82a11.49,11.49,0,0,0,7.75,2.75A44.56,44.56,0,0,0,331.82,352.92Z" transform="translate(-55.47 -14.12)"/>
          <path class="cls-5" d="M398.9,364.9q-4.42,0-10.72-2.88a19.61,19.61,0,0,1-9.6-9.77,34,34,0,0,1-3.3-14.88,64.27,64.27,0,0,1,1.2-10.78l1.37-7.94c.2-1.35.42-2.66.65-3.95q.51-3,.9-5.71a17.88,17.88,0,0,1,2.1-7.11,5.09,5.09,0,0,1,4.64-2.38c1,0,2.08.81,3.16,2.42a7.84,7.84,0,0,1,1.61,3.72q0,.9-2.06,9.44-.53,2.16-1.79,10.5a93.15,93.15,0,0,0-1.26,11.32q0,11,4.79,14.77t8.09,3.82q10.9,0,15.07-4.65t5.33-15.23c.14-1.29.31-2.5.51-3.65q.44-4.38.73-8.37,1-15.16,3-19t5.56-3.83c3,0,4.47,1.94,4.47,5.8a88.08,88.08,0,0,1-1.68,12.8,100.55,100.55,0,0,0-1.33,11q-.76,13-3.56,19.06t-10.12,10.74Q409.33,364.9,398.9,364.9Z" transform="translate(-55.47 -14.12)"/>
          <path class="cls-5" d="M457.43,319.42a52.51,52.51,0,0,0-1.2,6.23,57.89,57.89,0,0,1-.86,6.4A98.94,98.94,0,0,0,454,344.59a89.41,89.41,0,0,0,.69,11.16c.34,2.66-.2,4.6-1.64,5.82a6.64,6.64,0,0,1-4.29,1.83,4.46,4.46,0,0,1-4.34-2.65q-1.29-2.64-1.29-9.16,0-4,2-19.24l2.37-16.79c.48-2.46.84-4.76,1.07-6.87q.51-4.68,1.27-5.78a9.24,9.24,0,0,1,2.68-2.32,6.31,6.31,0,0,1,2.92-1.22,4.24,4.24,0,0,1,3.8,2,8.88,8.88,0,0,1,1.31,4.93Z" transform="translate(-55.47 -14.12)"/>
          <path class="cls-5" d="M518.79,308.77l-13.22.69a110.33,110.33,0,0,0-11.9,1.22q-5,.84-5.39,1.29a5.67,5.67,0,0,0-.58,2.64,65.11,65.11,0,0,1-1.54,7.56,40.81,40.81,0,0,0-1.29,6.74,77,77,0,0,0,7.9-.56,66.51,66.51,0,0,0,7.3-1.07,43.75,43.75,0,0,1,9.58-1.5q6.78,0,6.78,4,0,3-1.89,4.11a15.05,15.05,0,0,1-5.92,1.56q-2.49.25-5.59.78-1.62.25-4.08.51-11.9,1.38-14,2.15h0a1.73,1.73,0,0,0-1.1,1,45.59,45.59,0,0,0-1.31,6.37,55.39,55.39,0,0,0-.94,7.84,1.73,1.73,0,0,0,2,1.59q2.07,0,10.85-1.14T505.22,353a48.74,48.74,0,0,1,7.69-1.24c3.64.51,5.45,2.2,5.45,5.07a3.61,3.61,0,0,1-1.28,3q-4.3,1.94-11.9,2.41-5.88.35-14.26,1.46a68.43,68.43,0,0,1-14.08,1.59q-3.48,0-5-1.49a7.09,7.09,0,0,1-1.84-4.61l-.13-1.42a11.5,11.5,0,0,1,.73-2.62q1.71-5.28,4.21-23.49t2.49-20.27a1.6,1.6,0,0,0-.26-.34,7,7,0,0,1-1-1.66,6.26,6.26,0,0,1-.71-2.85,3.88,3.88,0,0,1,.17-1.25c.12-.6.73-1.2,1.85-1.8a6.68,6.68,0,0,1,3.14-.9,31.23,31.23,0,0,1,4.07.26q3.57,0,23.19-2.58c4.36-.57,6.63-.86,6.83-.86l.6,0q7.74-.56,7.73,5a4.22,4.22,0,0,1-1.39,2.55A5.92,5.92,0,0,1,518.79,308.77Z" transform="translate(-55.47 -14.12)"/>
        </g>
        <g>
          <path class="cls-6" d="M158.15,279l-24.22,37.4q-16.84,26.88-25.19,26.45-3.87-.21-6.58-6.05t-5.25-17.66q-2.55-11.82-3.5-17.88-2.16-14-3.07-16l-4.55,22.1q-2.15,10.71-4.29,19.66t-4.75,21.53q-2.62,12.57-3.42,19c-.16,1.43-1.3,2.91-3.41,4.47s-3.7,2.3-4.77,2.24q-3.2-.17-5.78-4.11A12.58,12.58,0,0,1,57,362.71a105.91,105.91,0,0,1,3.74-20.77q13.69-51.33,16-64.71A202.3,202.3,0,0,0,79.39,255a8.51,8.51,0,0,1,3.5-7A12.82,12.82,0,0,1,91.23,246q2.73.13,5.24,4.9a29.84,29.84,0,0,1,3.16,8.75l-.06-.17,7.57,33.8q4.52,20.25,6.11,25.73,7.73-9.65,23.16-33.76t21-30.87q5.58-6.84,7.71-6.74c2.18.12,4.55,1.41,7.1,3.89s3.78,4.55,3.7,6.2q-.1,1.89-3.93,25.65-2.67,16.79-5.22,37.61T164,345.54a50.86,50.86,0,0,0,.44,9.55,41.05,41.05,0,0,1,.31,7.15q-.45,8.47-2.9,11.44c-1.64,2-4.07,2.89-7.27,2.72q-8.75-.45-7.88-17.32.81-15.94,4.27-38.82t6-35.12Q157.86,280.72,158.15,279Z" transform="translate(-55.47 -14.12)"/>
          <path class="cls-6" d="M186.36,344.15a77.16,77.16,0,0,1-4.49,8q-3.75,6.17-5.21,6.87a6.14,6.14,0,0,1-2.58.71,6.54,6.54,0,0,1-3.72-1.7c-1.44-1.13-2.16-2.3-2.16-3.5s3.59-7.14,10.77-18.08q5.9-9,10.74-17.78,9.75-17.77,11.92-20.67c1.44-1.94,2.92-2.9,4.44-2.9q3.66,0,5.28,1.89c.55.4.82,1.36.82,2.87a10,10,0,0,1-.3,2.71q7.86,24,12.3,33.9t8.91,14.41a24.54,24.54,0,0,1,2.73,3,3.76,3.76,0,0,1,.49,2.06,5.24,5.24,0,0,1-1.71,4,5.79,5.79,0,0,1-4.08,1.61q-3.27,0-6.64-3.78a40.82,40.82,0,0,1-6.35-10.39q-3-6.61-3-7.43c0-.11-.07-.17-.21-.17A69.22,69.22,0,0,0,204,341.36a128.81,128.81,0,0,0-12.86,3.18,7.41,7.41,0,0,1-2.19.38A3.82,3.82,0,0,1,186.36,344.15ZM211.1,331q-1-2.53-6.1-18c-.32-.94-.53-1.54-.65-1.8l-12.19,23.19q2.7-.47,5.54-.86c1.26-.14,4.46-.74,9.62-1.8Q209.21,331.31,211.1,331Z" transform="translate(-55.47 -14.12)"/>
          <path class="cls-6" d="M282.68,311.86c0-2.84-.73-4.8-2.19-5.91s-3.6-1.65-6.44-1.65a26.7,26.7,0,0,0-13.46,3.54q-6.21,3.54-6.21,7.8a5.76,5.76,0,0,0,2.34,4.61q2.34,1.92,12.09,4.75Q279,328,284,331.5t5,8.53q0,8.28-12.62,15.18a54.13,54.13,0,0,1-26.24,6.89,12.17,12.17,0,0,1-7.09-1.85,5.41,5.41,0,0,1-2.66-4.55,7.18,7.18,0,0,1,1.2-4,3.44,3.44,0,0,1,2.88-1.85,5,5,0,0,1,1.89.35,21.62,21.62,0,0,0,8.42,1.93q6.69,0,15-3.76t8.35-7.36c0-1-.69-2-2.08-2.9a40.33,40.33,0,0,0-8.48-3.5q-9.33-3.06-14-5a16.78,16.78,0,0,1-7.13-5.17,12.36,12.36,0,0,1-2.43-7.71q0-8,9.36-14.94a36,36,0,0,1,22-6.92q7.26,0,11.44,2.88c2.8,1.92,4.19,4.11,4.19,6.57Q291,311.86,282.68,311.86Z" transform="translate(-55.47 -14.12)"/>
          <path class="cls-6" d="M347.66,301.77a40.66,40.66,0,0,1,8.63,11.53,27.42,27.42,0,0,1,3.26,12.21q0,6.62-4.4,13.75a45.32,45.32,0,0,1-11.66,12.54q8,9.39,9.56,11.72a7.66,7.66,0,0,1,1.56,3.18q0,1.62-2.62,3.5t-3.69,1.86a5.83,5.83,0,0,1-4.25-2.14,56.91,56.91,0,0,0-5.43-8.66q-3.67-5-3.8-5a9.41,9.41,0,0,0-1.89.35,53,53,0,0,1-13.62,2,24.92,24.92,0,0,1-15.67-5,16.18,16.18,0,0,1-6.48-13.51q0-9.52,6.82-20.55a66,66,0,0,1,17.2-18.61q10.38-7.61,18.66-7.6c1.78,0,3.52.9,5.24,2.72A8.3,8.3,0,0,1,347.66,301.77Zm-19.84,47.15a15.63,15.63,0,0,0-1.55-2.06q-3.74-4-3.73-4.86c0-1.05.88-2.23,2.64-3.52a9.25,9.25,0,0,1,5.56-1.93q2.53,0,3.22,2.88a10.11,10.11,0,0,0,1.72,3.69c.83,1.15,1.47,1.72,1.93,1.72q3.39,0,7.75-6.25t4.36-12A25.51,25.51,0,0,0,344.33,311q-5.38-7.23-8.31-7.24-5.32,0-12.07,6a52,52,0,0,0-11.36,14.58q-4.6,8.63-4.61,15.07c0,3.38,1.06,6,3.2,7.82a11.49,11.49,0,0,0,7.75,2.75A44.56,44.56,0,0,0,327.82,348.92Z" transform="translate(-55.47 -14.12)"/>
          <path class="cls-6" d="M394.9,360.9q-4.42,0-10.72-2.88a19.61,19.61,0,0,1-9.6-9.77,34,34,0,0,1-3.3-14.88,64.27,64.27,0,0,1,1.2-10.78l1.37-7.94c.2-1.35.42-2.66.65-3.95q.51-3,.9-5.71a17.88,17.88,0,0,1,2.1-7.11,5.09,5.09,0,0,1,4.64-2.38c1,0,2.08.81,3.16,2.42a7.84,7.84,0,0,1,1.61,3.72q0,.9-2.06,9.44-.53,2.16-1.79,10.5a93.15,93.15,0,0,0-1.26,11.32q0,11,4.79,14.77t8.09,3.82q10.9,0,15.07-4.65t5.33-15.23c.14-1.29.31-2.5.51-3.65q.44-4.38.73-8.37,1-15.16,3-19t5.56-3.83c3,0,4.47,1.94,4.47,5.8a88.08,88.08,0,0,1-1.68,12.8,100.55,100.55,0,0,0-1.33,11q-.76,13-3.56,19.06t-10.12,10.74Q405.33,360.9,394.9,360.9Z" transform="translate(-55.47 -14.12)"/>
          <path class="cls-6" d="M453.43,315.42a52.51,52.51,0,0,0-1.2,6.23,57.89,57.89,0,0,1-.86,6.4A98.94,98.94,0,0,0,450,340.59a89.41,89.41,0,0,0,.69,11.16c.34,2.66-.2,4.6-1.64,5.82a6.64,6.64,0,0,1-4.29,1.83,4.46,4.46,0,0,1-4.34-2.65q-1.29-2.64-1.29-9.16,0-4,2-19.24l2.37-16.79c.48-2.46.84-4.76,1.07-6.87q.51-4.68,1.27-5.78a9.24,9.24,0,0,1,2.68-2.32,6.31,6.31,0,0,1,2.92-1.22,4.24,4.24,0,0,1,3.8,2,8.88,8.88,0,0,1,1.31,4.93Z" transform="translate(-55.47 -14.12)"/>
          <path class="cls-6" d="M514.79,304.77l-13.22.69a110.33,110.33,0,0,0-11.9,1.22q-5,.84-5.39,1.29a5.67,5.67,0,0,0-.58,2.64,65.11,65.11,0,0,1-1.54,7.56,40.81,40.81,0,0,0-1.29,6.74,77,77,0,0,0,7.9-.56,66.51,66.51,0,0,0,7.3-1.07,43.75,43.75,0,0,1,9.58-1.5q6.78,0,6.78,4,0,3-1.89,4.11a15.05,15.05,0,0,1-5.92,1.56q-2.49.25-5.59.78-1.62.25-4.08.51-11.9,1.38-14,2.15h0a1.73,1.73,0,0,0-1.1,1,45.59,45.59,0,0,0-1.31,6.37,55.39,55.39,0,0,0-.94,7.84,1.73,1.73,0,0,0,2,1.59q2.07,0,10.85-1.14T501.22,349a48.74,48.74,0,0,1,7.69-1.24c3.64.51,5.45,2.2,5.45,5.07a3.61,3.61,0,0,1-1.28,3q-4.31,1.94-11.9,2.41-5.88.35-14.26,1.46a68.43,68.43,0,0,1-14.08,1.59q-3.48,0-5-1.49a7.09,7.09,0,0,1-1.84-4.61l-.13-1.42a11.5,11.5,0,0,1,.73-2.62q1.71-5.28,4.21-23.49t2.49-20.27a1.6,1.6,0,0,0-.26-.34,7,7,0,0,1-1-1.66,6.26,6.26,0,0,1-.71-2.85,3.88,3.88,0,0,1,.17-1.25c.12-.6.73-1.2,1.85-1.8a6.68,6.68,0,0,1,3.14-.9,31.23,31.23,0,0,1,4.07.26q3.57,0,23.19-2.58c4.36-.57,6.63-.86,6.83-.86l.6,0q7.74-.56,7.73,5a4.22,4.22,0,0,1-1.39,2.55A5.92,5.92,0,0,1,514.79,304.77Z" transform="translate(-55.47 -14.12)"/>
        </g>
      </g>
    </g>
  </g>
</svg>
