<?xml version="1.0" encoding="utf-8"?>
<!-- Generator: Adobe Illustrator 26.0.1, SVG Export Plug-In . SVG Version: 6.00 Build 0)  -->
<svg version="1.1" id="Calque_1" xmlns="http://www.w3.org/2000/svg" xmlns:xlink="http://www.w3.org/1999/xlink" x="0px" y="0px"
	 viewBox="0 0 409.6 409.6" style="enable-background:new 0 0 409.6 409.6;" xml:space="preserve">
<style type="text/css">
	.st0{fill:#BBDEFB;}
	.st1{fill:#64B5F6;}
	.st2{fill:#77BEF7;}
	.st3{fill:#7CB342;}
</style>
<g>
	<path class="st0" d="M129.3,382.5c-1.3,0-2.5,0.3-3.7,0.7c-5.3,2.3-10.6,4.5-15.9,6.8c-4.6,2-9.3,3.8-13.8,6.1
		c-2.3,1.2-4.6,2.2-7.1,3c-2.4,0.7-4.2,2.8-6.9,2.6c-3,2-6.4,3.1-9.8,4.2c-3.9,1.3-7.7,2.9-11.9,3.1c-0.1,0-0.2,0.4-0.3,0.7H47.1
		c0.1-0.3-0.1-0.7-0.4-0.8c-0.1,0-0.2,0-0.2,0c-4.9,0-9.3-1.8-13.7-3.5c-7.4-2.9-13.9-7.6-19-13.6c-3.1-3.3-5.6-7.1-7.4-11.3
		c-2.1-4.9-3.8-10-4.9-15.2c-0.7-4-0.9-8-0.5-12.1c0.3-3.5,1-6.9,2-10.3c1-3.7,2.4-7.3,4.2-10.6c4.1-7.2,6.7-10.3,14.2-16.5
		c5.1-4.2,11-6.8,17.1-8.9c1.6-0.6,3.4-1,5.1-1c1.4,0,2.3-1.1,3.7-0.9c1.2,0.1,2.4,0.1,3.5-0.1c0.1,0,0.2-0.4,0.3-0.6
		c1.8-0.5,2.7,1,3.6,1.9c6.4,6.4,12.8,12.7,19.1,19.2c1,1.1,3.2,2,1.6,4.2c-7.3,1.2-14.6,0.5-21.9,0.5c-9.5,0-16.9,4-22.5,11.5
		c-7.2,9.8-6.9,22.6,0.7,32.6c7.3,9.3,19.7,12.8,30.8,8.7c14-5.5,27.7-11.7,41.5-17.6c1.8-0.8,3.7-1.6,5.6-2.2
		c1.5-0.3,2.5,0.6,3.5,1.5c5,4.9,10,9.9,14.9,14.9C128.8,380.2,129.8,381,129.3,382.5z"/>
	<path class="st0" d="M409.6,59.1c-0.3-0.1-0.7,0.1-0.8,0.4c0,0.1,0,0.2,0,0.2c0,5.6-2.2,10.7-4.1,15.8c-2,5.3-4.2,10.5-6.4,15.6
		c-1.7,4-3.2,8.2-5.3,12.2c-1.5,3.2-2.8,6.5-4,9.9c-1.2,3-2.4,5.9-3.7,8.8c-0.6,1.4-0.3,3.3-2,4.1c-1.4,0.5-2.2-0.6-3-1.4
		c-5.2-5-10.1-10.2-15.3-15.1c-0.7-0.6-1.3-1.3-0.8-2.4c6.8-15.3,13.3-30.7,19-46.4c4.1-11.3-0.8-23.4-11.2-30.6
		c-9.6-6.4-22.2-5.9-31.3,1.3c-5.7,4.4-9,11.2-9,18.3c-0.1,6.4,0,12.8,0,19.1c0.2,1.6,0,3.2-0.5,4.7c-1.1,1.5-1.8,0.3-2.5-0.4
		c-7.2-6.5-14.1-13.3-20.9-20.2c-1-1-2.4-1.8-1.9-3.6c1.1,0,0.8-0.9,0.8-1.4c0.2-5.7,1.5-11.2,3.8-16.4c4.1-10,7.7-14,14.5-19.8
		c5.7-4.8,12.6-8.1,19.9-9.6c1.8-0.4,3.6-0.2,5.2-0.8c3.3-1.1,6.7-0.8,10-0.6c5.9,0.3,11.6,1.7,17.1,3.9c7.1,2.8,13.4,7.2,18.5,12.9
		c2.7,3,5,6.3,6.9,9.9c2,3.6,3.7,7.5,5,11.5c0.6,2.1,1.4,4,1.3,6.2c0,0.5,0,1.1,0.8,1V59.1z"/>
	<path class="st1" d="M395.2,204.4c-0.1,3-1.4,5.8-2,8.8c-1.6,7.5-4.5,14.6-6.7,22c-0.5,1.7-2,3-1.7,4.9c-2.1,2.3-2.4,5.4-3.8,8
		c-1.6,2.9-2.4,6.2-4.1,9.1c-3.6,6.1-6.6,12.5-10.6,18.4c-2.6,3.9-5.1,8-7.8,11.9c-1.7,2.5-3.5,5-5.3,7.4c-2.9,3.8-5.8,7.5-8.8,11.1
		c-2.2,2.7-4.7,5.3-7,7.9c-3.1,3.4-5.8,7.1-9.3,10.1c-0.5,0.4-0.7,1.2-1.5,1.1c-2.5,0.4-3.4-1.8-4.8-3.1
		c-21.7-21.6-43.3-43.2-64.9-64.9c-26.6-26.7-53.2-53.3-79.9-79.9c-1.4-1.4-3.2-2.5-3.4-4.8c2.3-5,6.8-8.1,10.7-11.6
		c3.5-3.1,6.7-6.4,10-9.7c0.8-0.9,1.5-1.8,2.1-2.9c3.3-5.3,2.6-11.2-1.8-14.8c-4.4-3.6-10.9-3.2-14.9,0.8
		c-6.4,6.2-12.6,12.6-19,18.8c-2.1,2-1.7,3.5,0.2,5.3c3.5,3.3,6.8,6.7,10.2,10.1c1.1,1.1,2.5,2.1,2.5,3.9s-1.4,2.8-2.5,3.9
		c-6,6-12,12-18,18c-5.8,5.8-13.1,6.1-18.4,1.1s-5.4-13.4,0.3-19.2s11.5-11.5,17.2-17.2c3.3-3.3,3.3-3.5,0.1-6.6
		c-8.7-8.7-17.5-17.4-26.2-26.2c-1.2-1.2-2.7-2.2-3.1-4c1.3-2.2,3.3-3.7,5.1-5.5c3.6-3.7,7.3-7.4,11-11c4.8-4.9,10.3-9.1,16.3-12.5
		c2-1.1,4-2.5,6.1-3.7c3.4-1.9,7-3.5,10.8-4.8c2.2-0.9,4.4-1.6,6.7-2.2c2.3-0.5,4.6-1.2,6.8-1.7s4.5-0.8,6.8-1.1
		c4.4-0.7,8.9-0.1,13.2-0.8c3.5-0.6,7.2-0.6,10.6-2.1c3.2-1.3,6.5-2.1,9.7-3.6c4-1.9,7.8-4.2,11.8-6s7.5-4.9,11.3-7.2
		c2.1,0.7,3.4,2.5,4.9,4c45.4,45.3,90.8,90.7,136.1,136.1C391.6,201.7,393.4,203.2,395.2,204.4z"/>
	<path class="st2" d="M123,122.2c0.1,0,0.3-0.1,0.4,0c11.1,11.1,22.1,22.1,33.1,33.1c0.1,1.3-0.9,1.7-1.5,2.3
		c-6.5,6.6-13.1,13.2-19.7,19.7c-4.8,4.7-5,12.4-0.3,17.3c1.4,1.4,3.1,2.5,5,3.1c3.6,1.4,7.6,0.6,10.4-2.1
		c7.7-7.6,15.6-15.1,22.9-23.2c0.3-0.3,0.5-0.3,0.8,0c0.1,0.9,0.9,1.3,1.4,1.8c49.8,49.8,99.5,99.5,149.3,149.3
		c0.5,0.5,0.9,1.4,1.8,1.4c-1.5,1.9-3,3.9-5.3,4.9c-0.8,0.5-1.5,1.2-2,1.9c-3.2,3.8-7.2,6.8-11,10.1c-3.8,3.4-7.8,6.6-11.9,9.6
		c-5.4,3.6-10.5,7.7-16.1,11.1c-6.8,4.2-13.6,8.1-20.5,11.9c-5.8,3.2-12.1,5.3-18,8.5c-2.1,1.1-4.7,1.6-7,2.3
		c-3.6,1.1-7.1,2.8-10.8,3.8c-2.7,0.7-5.5,1.5-8.2,2.1s-5.2,1.9-8.1,1.7c-1.7-0.3-2.6-1.7-3.7-2.8c-44.3-44.7-89.8-88.4-134-133.2
		c-2-2-4-3.9-5.9-6c-0.9-0.9-2.1-1.7-1.7-3.3c0.1-0.5-0.2-1,0.3-1.5c2.4-3.3,4.6-6.8,6.5-10.4c2-3.3,3.8-6.7,5.4-10.1
		c2.3-5.1,4.8-10.8,5.4-16.9c1.4-2.3,0.9-4.9,0.7-7.2c-0.3-4.1,1.3-8,0.9-12c1.3-2.3,0.7-4.9,1.5-7.3c0.8-2.2,1.1-4.6,1.8-6.8
		s2-4.5,2.2-7c2.9-4.5,4.5-9.6,7.5-14.1c2.9-4.2,5.9-8.2,9.1-12.2c5.7-7,12.6-12.8,18.7-19.4C122.4,122.3,122.7,122.3,123,122.2z"/>
	<path class="st3" d="M395.2,204.4c-0.7-0.3-1,1.5-1.8,0.2c-0.4-0.5-0.9-1-1.4-1.4c-47-47-93.9-94-140.9-140.9
		c-0.7-0.7-1.8-1.2-2-2.4c2.5-0.9,4.2-2.8,6.2-4.3c7.5-5.4,13.8-12,20.2-18.6c3.5-3.7,7.8-3.6,12.2-3.5c1.4,1.2,3.4,1.5,4.8,3
		c3.8,3.9,7.7,7.8,11.5,11.6c0.5,0.5,0.9,1.4,1.8,1.4c1.2,2.1,3.2,3.5,4.8,5.2c2.9,2.9,5.8,5.8,8.7,8.7c1.8,1.9,3.7,3.6,5.8,5.2
		c2.1,1.5,3.7,3.8,5.5,5.7c1.8-0.5,2.6,0.9,3.6,1.9c9.4,9.3,18.7,18.7,28,28c1,1,2.4,1.8,1.9,3.6c1.8,1.6,3.5,3.2,5.3,4.9
		c4.7,4.4,8.9,9.4,13.9,13.5c3.1,4,6.9,7.2,10.4,10.8c3.1,3,4.9,7.2,4.8,11.6c-0.1,10.3,0,20.7-0.1,31c0,2.3,0.5,4.5-0.6,6.9
		c-0.9,2,0.4,4.5-0.9,6.8c-0.7,1.2,0.6,3.1-0.8,4.4C396.5,200,394.8,202,395.2,204.4z"/>
	<path class="st1" d="M62.3,247.5c0.2,1,1.1,1.5,1.7,2.1c25.5,25.5,51,51,76.5,76.5c11.5,9.8,21.6,21.1,32.4,31.6
		s21.5,21.4,32.2,32.2c0.9,0.9,2.1,1.6,2.5,2.9c-0.1,0.2-0.2,0.7-0.3,0.7c-2.7-0.2-5.3,1-8,0.9c-1.5-0.1-2.5,1.1-4.1,1
		c-1.3-0.2-2.8-0.6-4.1,0.6c-0.5,0.5-1.8,0.1-2.7,0.1c-13.6,0-27.1,0-40.7,0c-2.8,0.1-5.6-1.1-7.5-3.2c-3.2-3.2-6.4-6.4-9.6-9.6
		c-0.3-0.3-0.6-1-1.2-0.9c-0.7-1.6-2.2-2.5-3.4-3.7c-4.6-4.7-9.3-9.4-14-14c-0.5-0.5-0.9-1.3-1.8-1.4c-1.3-0.2-2-1.1-2.9-2
		c-9.8-9.8-19.6-19.6-29.5-29.5c-0.8-0.8-1.8-1.6-2-2.9c-0.1-0.2-0.1-0.5-0.3-0.7c-7.9-7.9-15.9-15.9-23.8-23.8
		c-0.2-0.1-0.4-0.2-0.7-0.3c-5.4-4.6-10.3-9.7-14.7-15.2c-0.9-0.9-1.3-2.2-1.3-3.5c0.1-0.9,0.3-1.9-0.7-2.5c0.6-0.5,0.9-1.2,0.8-2
		c0-2.4,1-4.8,2.8-6.4c2.8-2.9,5.6-5.7,8.4-8.5c5.2-5.1,9.5-10.9,14-16.5C61,248.9,61.1,247.8,62.3,247.5z"/>
	<path class="st3" d="M174.1,172.5h-0.8c-1.8-2.8-4.5-4.8-6.8-7.1c-3-3.1-6.2-6.2-9.2-9.2c-0.1-1.3,0.9-1.7,1.5-2.3
		c6.5-6.5,13-12.9,19.4-19.5c2.6-2.9,6.4-4.5,10.2-4.2c4.3,0,8.2,2.6,10,6.5c2.1,4.3,1.5,8.5-1.3,12.4c-3.6,4.6-7.8,8.8-12.4,12.4
		c-1.7,1.5-3.3,3-4.8,4.8C178,168.3,175.7,170,174.1,172.5z"/>
</g>
</svg>
