<svg id="Calque_1" data-name="Calque 1" xmlns="http://www.w3.org/2000/svg" viewBox="0 0 248.79 248.79">
  <defs>
    <style>
      .cls-1 {
        fill: #7cb342;
      }
    </style>
  </defs>
  <g>
    <path class="cls-1" d="M558.49,391.15V376.58a16.93,16.93,0,0,0,.41-2.1,117,117,0,0,1,14.19-49c19.35-35,48.74-56.49,88.11-64.05,4.74-.91,9.58-1.32,14.38-2h14.57a14,14,0,0,0,1.88.39,115.25,115.25,0,0,1,49,14.15c40.88,22.89,63.11,57.87,66,104.65a114,114,0,0,1-14.45,63.54C769.77,483,734.77,505.16,688.09,508a115.26,115.26,0,0,1-63.56-14.4q-52.62-29-64.08-88.12C559.54,400.78,559.13,395.94,558.49,391.15Zm124.29,85.09c50.91.14,92.22-41.07,92.46-92.23.24-50.86-40.94-92.19-92.17-92.52-50.85-.34-92.55,41.25-92.58,92.35A92.38,92.38,0,0,0,682.78,476.24Z" transform="translate(-558.49 -259.49)"/>
    <path class="cls-1" d="M666.86,399.86H637.18a17.12,17.12,0,0,1-10.73-3.19,15.89,15.89,0,0,1-5.62-17.95C623,372.17,629,368,636.51,367.89c9.15-.09,18.3,0,27.45,0h2.9v-2.78c0-9.15-.05-18.3,0-27.45.07-8.72,6-15.67,13.78-16.47,10.27-1.05,18.07,5.92,18.18,16.41.1,9.15,0,18.3,0,27.45v2.84h2.85c9.15,0,18.31-.09,27.45,0,13.17.17,20.86,13.3,14.22,24.29-3.25,5.39-8.35,7.66-14.52,7.68-9,0-18,0-27,0h-3v2.67c0,9.15,0,18.3,0,27.45,0,7.51-4,13.4-10.38,15.74-10.82,4-21.47-3.73-21.59-15.68-.08-9.07,0-18.14,0-27.2Z" transform="translate(-558.49 -259.49)"/>
  </g>
</svg>
